# xmcd
#
# Track frame offsets: 
#        150
#        11269
#        28293
#        45651
#        62886
#        82858
#        96996
#        112347
#        126300
#        150364
#        167001
#
# Disc length: 2542 seconds
#
# Revision: 0
# Processed by: cddbd v1.5.2PL0 Copyright (c) Steve Scherf et al.
# Submitted via: ExactAudioCopyFreeDBPlugin 1.0
#
DISCID=8909ec0b
DTITLE=The Alan Greene Band - No stranger to blues
DYEAR=2012
DGENRE=Blues
TTITLE0=Little black mark
TTITLE1=My little gal
TTITLE2=Who's been talking
TTITLE3=True love
TTITLE4=Lonely nights
TTITLE5=Can't find my way home
TTITLE6=Great you right
TTITLE7=Been gone too long
TTITLE8=Angel love
TTITLE9=Meal ticket blues
TTITLE10=Blues got a hold on me
EXTD=
EXTT0=
EXTT1=
EXTT2=
EXTT3=
EXTT4=
EXTT5=
EXTT6=
EXTT7=
EXTT8=
EXTT9=
EXTT10=
PLAYORDER=
